HIERARCHY
ROOT SpineBase
{
  OFFSET 0.000000 0.000000 0.000000
  CHANNELS 6 Xposition Yposition Zposition Zrotation Xrotation Yrotation
  JOINT SpineMid
  {
    OFFSET -0.000000 27.581104 0.000000
    CHANNELS 3 Zrotation Xrotation Yrotation
    JOINT SpineShoulder
    {
      OFFSET -0.057939 20.561488 -0.720519
      CHANNELS 3 Zrotation Xrotation Yrotation
      JOINT Neck
      {
        OFFSET -0.077705 6.835695 -0.558862
        CHANNELS 3 Zrotation Xrotation Yrotation
        JOINT Head
        {
          OFFSET 5.922580 11.567726 1.677828
          CHANNELS 3 Zrotation Xrotation Yrotation
          End Site
          {
            OFFSET 0 0 0
          }
        }
      }
      JOINT ShoulderLeft
      {
        OFFSET -11.143183 -3.897691 -10.154689
        CHANNELS 3 Zrotation Xrotation Yrotation
        JOINT ElbowLeft
        {
          OFFSET -6.128455 -21.998571 -4.308339
          CHANNELS 3 Zrotation Xrotation Yrotation
          JOINT WristLeft
          {
            OFFSET 4.400315 -23.904656 -2.853373
            CHANNELS 3 Zrotation Xrotation Yrotation
            JOINT HandLeft
            {
              OFFSET 2.091563 -7.717785 0.370136
              CHANNELS 3 Zrotation Xrotation Yrotation
              JOINT HandTipLeft
              {
                OFFSET 2.234322 -6.036111 0.326531
                CHANNELS 3 Zrotation Xrotation Yrotation
                End Site
                {
                  OFFSET 0 0 0
                }
              }
              JOINT ThumbLeft
              {
                OFFSET -3.135136 -1.249690 -0.751639
                CHANNELS 3 Zrotation Xrotation Yrotation
                End Site
                {
                  OFFSET 0 0 0
                }
              }
            }
          }
        }
      }
      JOINT ShoulderRight
      {
        OFFSET 11.706061 -4.930248 8.072456
        CHANNELS 3 Zrotation Xrotation Yrotation
        JOINT ElbowRight
        {
          OFFSET 1.060416 -24.556118 0.736726
          CHANNELS 3 Zrotation Xrotation Yrotation
          JOINT WristRight
          {
            OFFSET 0.714088 -22.467562 -9.866135
            CHANNELS 3 Zrotation Xrotation Yrotation
            JOINT HandRight
            {
              OFFSET 0.536605 -5.691807 -2.550057
              CHANNELS 3 Zrotation Xrotation Yrotation
              JOINT HandTipRight
              {
                OFFSET 0.347576 -3.940824 -6.589401
                CHANNELS 3 Zrotation Xrotation Yrotation
                End Site
                {
                  OFFSET 0 0 0
                }
              }
              JOINT ThumbRight
              {
                OFFSET 1.077450 -0.481054 -1.818245
                CHANNELS 3 Zrotation Xrotation Yrotation
                End Site
                {
                  OFFSET 0 0 0
                }
              }
            }
          }
        }
      }
    }
  }
  JOINT HipLeft
  {
    OFFSET -4.261315 1.293363 -6.985319
    CHANNELS 3 Zrotation Xrotation Yrotation
    JOINT KneeLeft
    {
      OFFSET -11.952257 -29.054850 2.211494
      CHANNELS 3 Zrotation Xrotation Yrotation
      JOINT AnkleLeft
      {
        OFFSET -8.224389 -28.363658 6.879655
        CHANNELS 3 Zrotation Xrotation Yrotation
        JOINT FootLeft
        {
          OFFSET 5.181169 -4.050410 -9.885982
          CHANNELS 3 Zrotation Xrotation Yrotation
          End Site
          {
            OFFSET 0 0 0
          }
        }
      }
    }
  }
  JOINT HipRight
  {
    OFFSET 3.708755 0.448585 0.542809
    CHANNELS 3 Zrotation Xrotation Yrotation
    JOINT KneeRight
    {
      OFFSET -5.630711 -30.831571 7.144075
      CHANNELS 3 Zrotation Xrotation Yrotation
      JOINT AnkleRight
      {
        OFFSET -9.398388 -26.001172 9.874773
        CHANNELS 3 Zrotation Xrotation Yrotation
        JOINT FootRight
        {
          OFFSET 5.447154 -3.818292 -10.682197
          CHANNELS 3 Zrotation Xrotation Yrotation
          End Site
          {
            OFFSET 0 0 0
          }
        }
      }
    }
  }
}
MOTION
Frames: 16
Frame Time: 0.033333
27.512496 61.957023 359.627628 0.000000 0.000000 -43.366615 -0.000000 0.000000 43.366615 -0.000000 0.000000 0.000000 -0.000000 0.000000 0.000000 0.000000 0.000000 0.000000 -0.000000 0.000000 0.000000 -0.000000 0.000000 0.000000 -0.000000 0.000000 0.000000 -0.000000 0.000000 0.000000 0.000000 0.000000 0.000000 0.000000 0.000000 0.000000 -0.000000 0.000000 0.000000 -0.000000 0.000000 0.000000 -0.000000 0.000000 0.000000 -0.000000 0.000000 0.000000 0.000000 0.000000 0.000000 0.000000 0.000000 0.000000 -0.000000 0.000000 43.366615 -0.000000 0.000000 0.000000 -0.000000 0.000000 0.000000 0.000000 0.000000 0.000000 -0.000000 0.000000 43.366615 -0.000000 0.000000 0.000000 -0.000000 0.000000 0.000000 0.000000 0.000000 0.000000
27.366037 62.018147 359.378633 -0.176881 0.350981 -43.237458 0.369293 -0.134527 43.238434 -0.000000 0.000000 0.000000 -0.000000 0.000000 0.000000 0.000000 0.000000 0.000000 -0.000000 0.000000 0.000000 -0.000000 0.000000 0.000000 -1.845661 -0.286598 -0.171538 -1.379064 2.500935 0.896270 0.000000 0.000000 0.000000 0.000000 0.000000 0.000000 -0.107701 1.792064 0.075886 0.638801 -4.831873 -0.377465 -3.441672 4.068819 1.914368 2.132753 -0.794100 -0.137482 0.000000 0.000000 0.000000 0.000000 0.000000 0.000000 0.369293 -0.134527 43.238434 -0.000000 0.000000 0.000000 -0.000000 0.000000 0.000000 0.000000 0.000000 0.000000 0.369293 -0.134527 43.238434 -0.000000 0.000000 0.000000 -0.631925 -1.347619 -0.169001 0.000000 0.000000 0.000000
27.243786 62.064706 359.183145 -0.326695 0.625721 -43.112473 0.666134 -0.233497 43.115615 -0.000000 0.000000 0.000000 -0.000000 0.000000 0.000000 0.000000 0.000000 0.000000 -0.000000 0.000000 0.000000 -0.913857 -0.238813 0.063329 -2.543219 -0.278653 -0.377721 -2.587461 4.790516 1.868358 0.000000 0.000000 0.000000 0.000000 0.000000 0.000000 -0.198557 3.265684 0.140895 1.121146 -8.719233 -0.628415 -6.536013 7.681603 3.936559 4.076359 -1.875842 -0.358262 0.000000 0.000000 0.000000 0.000000 0.000000 0.000000 0.666134 -0.233497 43.115615 -0.000000 0.000000 0.000000 -0.000000 0.000000 0.000000 0.000000 0.000000 0.000000 0.666134 -0.233497 43.115615 -0.000000 0.000000 0.000000 -1.323594 -2.794238 -0.345481 0.000000 0.000000 0.000000
27.145744 62.096699 359.041163 -0.449332 0.823994 -42.991192 0.890545 -0.296290 42.996726 -0.000000 0.000000 0.000000 -0.000000 0.000000 0.000000 0.000000 0.000000 0.000000 -0.000000 0.000000 0.000000 -1.406206 -0.382385 0.093026 -3.376831 -0.305912 -0.521611 -3.651637 6.858723 2.863854 0.000000 0.000000 0.000000 0.000000 0.000000 0.000000 -0.269658 4.390703 0.192186 1.454538 -11.611915 -0.783117 -9.191734 10.842186 5.881766 5.711144 -3.207336 -0.572908 0.000000 0.000000 0.000000 0.000000 0.000000 0.000000 1.798347 -0.436353 43.343149 0.142339 1.203375 -0.318182 -0.703765 -0.482307 -0.033718 0.000000 0.000000 0.000000 1.738659 -0.845157 43.240724 0.537552 0.695686 0.154050 -2.889549 -4.047561 -0.919878 0.000000 0.000000 0.000000
27.071910 62.114128 358.952687 -0.544713 0.945665 -42.873163 1.042618 -0.322375 42.880592 -0.000000 0.000000 0.000000 -0.000000 0.000000 0.000000 0.000000 0.000000 0.000000 -0.000000 0.000000 0.000000 -1.920244 -0.541716 0.120875 -3.850832 -0.249921 -0.625085 -4.607789 8.706450 3.835747 0.000000 0.000000 0.000000 0.000000 0.000000 0.000000 -0.318633 5.144885 0.227412 1.641666 -13.481054 -0.864033 -11.312608 13.571902 7.579769 6.948024 -4.736054 -0.722289 0.000000 0.000000 0.000000 0.000000 0.000000 0.000000 2.043220 -0.486494 43.265181 0.235680 1.330897 -0.337225 -0.848744 -0.530529 -0.055781 0.000000 0.000000 0.000000 2.009260 -0.943720 43.160201 0.647186 0.742098 0.205402 -3.888342 -5.622363 -1.200592 0.000000 0.000000 0.000000
27.022285 62.116992 358.917717 -0.612787 0.990675 -42.757929 1.122505 -0.311291 42.766276 -0.000000 0.000000 0.000000 -0.000000 0.000000 0.000000 0.000000 0.000000 0.000000 -0.000000 0.000000 0.000000 -2.454275 -0.716376 0.146469 -3.912767 -0.103891 -0.682175 -5.498645 10.341002 4.743243 0.000000 0.000000 0.000000 0.000000 0.000000 0.000000 -0.343810 5.513772 0.244913 1.682953 -14.311672 -0.885171 -12.806954 15.891237 8.885791 7.729738 -6.399965 -0.775327 0.000000 0.000000 0.000000 0.000000 0.000000 0.000000 2.107573 -0.487090 43.147965 0.359081 1.323672 -0.309865 -0.954734 -0.526793 -0.082923 0.000000 0.000000 0.000000 2.127785 -0.950559 43.057598 0.717906 0.699053 0.256362 -4.912579 -7.329644 -1.474469 0.000000 0.000000 0.000000
26.984549 62.106553 358.923765 -0.682500 0.988332 -42.595261 1.171344 -0.265561 42.603863 -0.459530 0.714757 -0.026593 0.459897 -0.714521 0.032327 0.000000 0.000000 0.000000 0.459897 -0.714521 0.032327 -3.154486 -0.970343 0.172335 -3.030000 0.201408 -0.678152 -5.771150 12.367891 5.762752 0.000000 0.000000 0.000000 0.000000 0.000000 0.000000 0.096592 5.019901 0.283441 1.276578 -13.417082 -0.744455 -13.298085 14.143904 8.943384 8.094590 -2.745144 0.485727 0.000000 0.000000 0.000000 0.000000 0.000000 0.000000 1.973207 -0.412846 42.914244 0.582122 1.022443 -0.167721 -1.068007 -0.371574 -0.154237 0.000000 0.000000 0.000000 2.154923 -0.856253 42.889100 0.705270 0.574127 0.292231 -7.227511 -11.537952 -2.037092 0.000000 0.000000 0.000000
26.983591 62.076079 358.989457 -0.696438 0.885182 -42.456474 1.111344 -0.182900 42.463628 -0.514449 0.739782 -0.030347 0.514884 -0.739480 0.036991 0.000000 0.000000 0.000000 0.110266 -1.444023 0.304863 -3.513446 -0.540800 -0.035446 -1.353299 0.148654 -0.778332 -7.635340 13.961426 6.614075 0.000000 0.000000 0.000000 0.000000 0.000000 0.000000 0.082663 5.088744 0.292894 0.821743 -13.414391 -0.595007 -12.096717 17.258426 8.734561 7.224927 -7.238596 0.116362 0.000000 0.000000 0.000000 0.000000 0.000000 0.000000 1.111344 -0.182900 42.463628 1.075941 0.225661 0.194048 -1.076707 -0.221976 -0.198252 0.000000 0.000000 0.000000 1.962483 -0.684155 42.709262 0.700175 0.371701 0.333721 -7.038440 -10.897086 -1.217004 0.000000 0.000000 0.000000
27.013636 62.028587 359.125413 -0.667772 0.680887 -42.370003 0.952207 -0.052987 42.374412 -0.569905 0.721647 -0.034821 0.570388 -0.721265 0.042000 0.000000 0.000000 0.000000 0.147393 -1.507883 0.335862 -4.139483 -0.656022 -0.022429 0.523872 1.069990 -0.548803 -8.885889 15.405492 7.333435 0.000000 0.000000 0.000000 0.000000 0.000000 0.000000 0.067121 3.498001 0.221723 0.674821 -10.588558 -0.423370 -11.325265 18.772866 8.449767 6.631624 -10.180357 -0.132017 0.000000 0.000000 0.000000 0.000000 0.000000 0.000000 0.952207 -0.052987 42.374412 0.907807 0.099153 0.191138 -0.908134 -0.096112 -0.192685 0.000000 0.000000 0.000000 0.952207 -0.052987 42.374412 0.851094 -0.571715 0.534555 -7.762500 -12.687030 -1.857828 0.000000 0.000000 0.000000
27.080446 61.985926 359.321493 -0.587174 0.399571 -42.504722 0.702843 0.102163 42.506143 -0.611800 0.652741 -0.039135 0.612285 -0.652286 0.046105 0.000000 0.000000 0.000000 0.187082 -1.488939 0.354662 -4.547650 -0.728617 -0.011265 2.183354 1.657945 -0.406019 -10.783119 16.040179 7.687403 0.000000 0.000000 0.000000 0.000000 0.000000 0.000000 0.203467 2.960999 0.198431 0.507814 -8.516166 -0.332839 -9.887765 17.262176 7.284424 5.774746 -10.120812 -0.097719 0.000000 0.000000 0.000000 0.000000 0.000000 0.000000 0.702843 0.102163 42.506143 0.905217 0.192284 0.162731 -0.905765 -0.189688 -0.165750 0.000000 0.000000 0.000000 0.702843 0.102163 42.506143 0.623511 -0.597173 0.455898 -11.806772 -20.458861 -4.832439 0.000000 0.000000 0.000000
27.124696 61.947602 359.481022 -0.547224 0.180417 -42.600350 0.524929 0.237603 42.600123 -0.641495 0.565188 -0.042878 0.641949 -0.564672 0.049206 0.000000 0.000000 0.000000 0.241495 -1.444417 0.365909 -4.701101 -0.669999 0.004507 3.104484 2.360399 -0.200549 -11.350046 12.759221 5.901207 0.000000 0.000000 0.000000 0.000000 0.000000 0.000000 0.444667 2.260794 0.168421 0.871365 -5.304926 -0.446120 -9.007183 14.447183 6.197313 5.189134 -10.055785 -0.564606 0.000000 0.000000 0.000000 0.000000 0.000000 0.000000 0.524929 0.237603 42.600123 0.937551 0.169972 0.177217 -0.938076 -0.167049 -0.179976 0.000000 0.000000 0.000000 0.524929 0.237603 42.600123 0.538338 -0.634605 0.436641 -14.240559 -24.489591 -7.317884 0.000000 0.000000 0.000000
27.163827 61.893382 359.612212 -0.516308 0.009158 -42.727427 0.385493 0.343591 42.726312 -0.689345 0.508333 -0.047543 0.689793 -0.507724 0.053657 0.000000 0.000000 0.000000 0.309118 -1.412488 0.374147 -4.548107 -0.512791 0.012837 3.121241 3.051725 0.039547 -12.366562 11.516378 5.279643 0.000000 0.000000 0.000000 0.000000 0.000000 0.000000 1.085398 0.585577 0.112495 0.948368 -0.274222 -0.609611 -6.198227 14.612832 4.500313 2.207958 -14.098175 -0.464530 0.000000 0.000000 0.000000 0.000000 0.000000 0.000000 0.385493 0.343591 42.726312 0.867175 0.197069 0.152102 -0.867700 -0.194743 -0.155068 0.000000 0.000000 0.000000 0.385493 0.343591 42.726312 0.627169 -0.561896 0.444419 -13.552107 -23.530014 -7.900935 0.000000 0.000000 0.000000
27.142809 61.901928 359.653518 -0.567811 -0.033259 -42.935131 0.393061 0.411121 42.933556 -0.760150 0.485904 -0.053424 0.760630 -0.485153 0.059868 0.000000 0.000000 0.000000 0.402318 -1.413652 0.383083 -4.324708 -0.296458 0.026005 2.819497 3.747829 0.294015 -14.225034 8.250088 3.554326 0.000000 0.000000 0.000000 0.000000 0.000000 0.000000 1.580928 1.778503 0.173052 2.536981 1.496030 -1.451096 -3.852654 2.740298 2.018155 0.782415 -5.932390 -1.371694 0.000000 0.000000 0.000000 0.000000 0.000000 0.000000 0.393061 0.411121 42.933556 -0.000000 0.000000 0.000000 -0.000000 0.000000 0.000000 0.000000 0.000000 0.000000 0.393061 0.411121 42.933556 0.685389 -0.365214 0.394871 -9.694764 -17.885441 -6.792501 0.000000 0.000000 0.000000
27.113473 61.936384 359.635414 -0.624014 0.006292 -43.152848 0.459549 0.422198 43.151189 -0.827733 0.491832 -0.058555 0.828265 -0.490934 0.065657 0.000000 0.000000 0.000000 0.489778 -1.450648 0.393947 -4.133914 -0.037329 0.048508 2.853443 4.057757 0.437138 -14.489860 9.706244 4.313350 0.000000 0.000000 0.000000 0.000000 0.000000 0.000000 2.552843 -1.009344 0.117446 5.245552 10.729631 -3.306334 -2.856898 2.035952 1.639339 -4.097642 -9.446588 0.547893 0.000000 0.000000 0.000000 0.000000 0.000000 0.000000 0.459549 0.422198 43.151189 -0.000000 0.000000 0.000000 -0.000000 0.000000 0.000000 0.000000 0.000000 0.000000 0.950920 1.256266 43.309793 -0.929657 -0.269821 -0.167990 -8.944562 -18.390164 -6.511584 0.000000 0.000000 0.000000
27.093901 61.962723 359.605361 -0.662491 0.066319 -43.225577 0.528159 0.405394 43.224092 -0.897881 0.531628 -0.063230 0.898506 -0.530571 0.071556 0.000000 0.000000 0.000000 0.592408 -1.533958 0.405978 -3.890238 0.234748 0.061428 3.634435 4.404254 0.599524 -15.752296 6.857607 2.624411 0.000000 0.000000 0.000000 0.000000 0.000000 0.000000 4.948921 0.308417 0.236812 7.125197 16.526337 -5.698015 -0.652868 9.664039 1.066096 -9.827902 -23.826710 -0.883932 0.000000 0.000000 0.000000 0.000000 0.000000 0.000000 0.528159 0.405394 43.224092 -0.000000 0.000000 0.000000 -0.000000 0.000000 0.000000 0.000000 0.000000 0.000000 1.289739 1.428907 43.462527 -1.256783 -0.218913 -0.253027 -5.069837 -11.596094 -4.473965 0.000000 0.000000 0.000000
27.073471 61.983406 359.584299 -0.706780 0.112997 -43.219916 0.592439 0.401656 43.218536 -0.989752 0.598271 -0.068988 0.990525 -0.596990 0.079316 0.000000 0.000000 0.000000 0.729098 -1.609801 0.408166 -3.459603 0.444529 0.050123 4.453963 4.340554 0.670146 -16.425727 5.151572 1.588385 0.000000 0.000000 0.000000 0.000000 0.000000 0.000000 7.627098 1.224896 0.320131 9.851920 21.565635 -8.970969 -2.494896 11.595066 1.443552 -11.285663 -25.584968 -2.988086 0.000000 0.000000 0.000000 0.000000 0.000000 0.000000 0.012136 0.924836 42.899942 0.068984 -0.778243 0.325780 -0.000000 0.000000 0.000000 0.000000 0.000000 0.000000 1.594458 1.551602 43.526208 -1.518387 -0.143527 -0.326654 -5.044678 -11.146535 -3.495344 0.000000 0.000000 0.000000
